<?xml version="1.0" standalone="no"?>
<!DOCTYPE svg PUBLIC "-//W3C//DTD SVG 20010904//EN"
 "http://www.w3.org/TR/2001/REC-SVG-20010904/DTD/svg10.dtd">
<svg version="1.0" xmlns="http://www.w3.org/2000/svg"
 width="64.000000pt" height="64.000000pt" viewBox="0 0 64.000000 64.000000"
 preserveAspectRatio="xMidYMid meet">

<g transform="translate(0.000000,64.000000) scale(0.100000,-0.100000)"
fill="#000000" stroke="none">
<path d="M207 610 c-99 -38 -174 -125 -197 -229 -31 -135 40 -289 162 -352 54
-28 68 -25 68 14 0 31 -2 33 -36 34 -35 1 -74 26 -74 48 0 7 -9 20 -20 30 -11
10 -20 22 -20 27 0 17 21 7 59 -27 45 -41 73 -44 96 -12 14 21 14 23 -7 31
-74 27 -90 38 -104 71 -17 41 -19 126 -3 142 7 7 13 32 14 57 1 25 5 49 9 53
4 4 21 1 39 -6 47 -20 193 -21 245 -3 23 8 45 12 49 8 4 -3 7 -27 8 -52 1 -25
7 -50 14 -57 16 -16 14 -101 -3 -142 -14 -34 -47 -56 -99 -69 -23 -5 -26 -9
-17 -26 5 -10 10 -46 10 -79 0 -69 7 -73 68 -42 86 44 157 148 169 249 11 100
-42 226 -121 287 -84 64 -213 83 -309 45z"/>
</g>
</svg>
