<?xml version="1.0" standalone="no"?>
<!DOCTYPE svg PUBLIC "-//W3C//DTD SVG 20010904//EN"
 "http://www.w3.org/TR/2001/REC-SVG-20010904/DTD/svg10.dtd">
<svg version="1.0" xmlns="http://www.w3.org/2000/svg"
 width="64.000000pt" height="64.000000pt" viewBox="0 0 64.000000 64.000000"
 preserveAspectRatio="xMidYMid meet">

<g transform="translate(0.000000,64.000000) scale(0.100000,-0.100000)"
fill="#000000" stroke="none">
<path d="M20 620 c-19 -19 -20 -33 -20 -300 0 -267 1 -281 20 -300 19 -19 33
-20 300 -20 267 0 281 1 300 20 19 19 20 33 20 300 0 267 -1 281 -20 300 -19
19 -33 20 -300 20 -267 0 -281 -1 -300 -20z m164 -86 c21 -20 20 -53 -1 -76
-33 -36 -93 -13 -93 37 0 48 60 73 94 39z m296 -159 c52 -27 60 -49 60 -167
l0 -108 -45 0 -45 0 0 86 c0 101 -9 124 -50 124 -41 0 -50 -23 -50 -124 l0
-86 -45 0 -45 0 0 140 0 140 45 0 c35 0 45 -4 45 -17 0 -14 2 -15 18 -1 35 31
70 35 112 13z m-290 -135 l0 -140 -45 0 -45 0 0 140 0 140 45 0 45 0 0 -140z"/>
</g>
</svg>
